<svg
  xmlns="http://www.w3.org/2000/svg"
  version="1.1"
  viewBox="0 0 31.291557 9.72118"
>
  <g
    transform="matrix(0.26458333,0,0,0.26458333,1.985,2.2778742)"
    fill="var(--color-accent)"
  >
    <path
      d="m 34.905753,17.807062 c 0.102034,0.04076 0.189795,0.09788 0.264459,0.171213 0.07437,0.07317 0.132983,0.153637 0.175219,0.24184 0.05593,0.114843 0.08389,0.237544 0.08389,0.366949 0,0.14756 -0.03733,0.287961 -0.111264,0.420502 -0.07422,0.133273 -0.177001,0.236647 -0.308933,0.310868 -0.131491,0.07422 -0.269666,0.111111 -0.414699,0.111111 -0.143828,0 -0.281715,-0.03689 -0.413206,-0.111111 -0.131932,-0.07422 -0.235152,-0.177595 -0.308933,-0.310868 -0.07437,-0.132541 -0.111249,-0.272942 -0.111249,-0.420502 0,-0.12523 0.02394,-0.239464 0.07198,-0.342244 0.04775,-0.102795 0.107684,-0.189795 0.180428,-0.2603 0.07244,-0.07066 0.151413,-0.125246 0.236938,-0.163171 0.11245,-0.05043 0.22743,-0.07527 0.344039,-0.07527 0.105903,0 0.209733,0.02038 0.311325,0.06099 z m 0.589613,0.369782 c -0.04491,-0.100846 -0.108733,-0.193969 -0.191577,-0.27934 -0.08315,-0.08583 -0.185638,-0.156928 -0.307152,-0.213297 -0.121529,-0.05712 -0.255548,-0.08539 -0.402209,-0.08539 -0.150666,0 -0.293915,0.03273 -0.429107,0.09788 -0.09847,0.04716 -0.189354,0.112147 -0.273399,0.194258 -0.08284,0.08226 -0.151261,0.18384 -0.204372,0.304928 -0.0534,0.121224 -0.08002,0.251664 -0.08002,0.391181 0,0.172843 0.04359,0.337492 0.130607,0.494129 0.08761,0.156028 0.209123,0.277693 0.364862,0.364863 0.155723,0.08731 0.319641,0.130744 0.491433,0.130744 0.152769,0 0.296444,-0.03273 0.432108,-0.09877 0.104105,-0.05072 0.1993,-0.120174 0.284975,-0.20853 0.08628,-0.08791 0.152768,-0.192476 0.200655,-0.313244 0.047,-0.120493 0.07095,-0.243653 0.07095,-0.369188 0,-0.140416 -0.02929,-0.277252 -0.08775,-0.41022 z m -0.9335,0.55123 c 0.06261,0 0.109906,0.0085 0.14279,0.02544 0.03243,0.01711 0.05578,0.0403 0.06961,0.06947 0.01442,0.02959 0.02335,0.07675 0.02752,0.142791 0.0051,0.09236 0.01115,0.147545 0.01918,0.165091 h 0.232336 c -0.0092,-0.03034 -0.01502,-0.07823 -0.01665,-0.144132 -0.0015,-0.06559 -0.0054,-0.112437 -0.01145,-0.140264 -0.0094,-0.04327 -0.02381,-0.07928 -0.04359,-0.108872 -0.02022,-0.029 -0.0452,-0.05235 -0.07585,-0.06886 -0.03034,-0.01697 -0.0705,-0.03049 -0.120631,-0.04076 0.05667,-0.007 0.09698,-0.01622 0.120631,-0.02812 0.04417,-0.02186 0.07957,-0.05415 0.106193,-0.09638 0.02678,-0.04254 0.04001,-0.09104 0.04001,-0.146356 0,-0.05652 -0.01264,-0.106055 -0.03748,-0.148458 -0.02498,-0.04253 -0.05725,-0.07616 -0.09652,-0.102323 -0.03942,-0.02588 -0.09,-0.04447 -0.15187,-0.05623 -0.04403,-0.008 -0.108887,-0.01159 -0.194699,-0.01159 h -0.392233 v 1.092348 h 0.243927 v -0.402788 z m 0.128808,-0.504227 c 0.03748,0.011 0.06648,0.02988 0.08746,0.05652 0.02082,0.02676 0.03124,0.05875 0.03124,0.09593 0,0.03496 -0.0089,0.0665 -0.02752,0.0946 -0.01785,0.02842 -0.04536,0.04968 -0.08181,0.06367 -0.0363,0.01383 -0.07512,0.02082 -0.115422,0.02082 h -0.161541 v -0.347758 h 0.161541 c 0.03272,0 0.06798,0.0054 0.106055,0.01622 z"
    />
    <polygon
      points="6.2359999,0 6.2359999,4.995194 7.8241219,4.995194 2.0572567,14.581743 0,14.581743 0,19.5768 9.7901897,19.5768 9.7901897,14.581743 8.0314636,14.581743 11.035748,9.5876001 12.200399,11.524211 11.083498,11.524211 11.083498,16.519268 21.816176,16.519268 21.816176,11.524211 20.699732,11.524211 21.864367,9.5876001 24.868362,14.581743 23.109636,14.581743 23.109636,19.5768 32.899081,19.5768 32.899081,14.581743 30.842418,14.581743 25.075551,4.995194 26.664115,4.995194 26.664115,0 17.064925,0 17.064925,4.995194 18.653488,4.995194 16.449509,8.6575097 14.246795,4.995194 15.835054,4.995194 15.835054,0 "
    />
  </g>
  <g
    transform="matrix(0.11368589,0,0,0.11368589,7.9990355,5.7985366)"
    fill="var(--color-max)"
    stroke="none"
  >
    <path
      d="m 181.0681,7.288455 0.0546,1.8476 h -0.2421 c -0.2247,-1.1855 -0.51179,-1.3808 -2.0704,-1.3808 v 5.5214 c 0,0.6465 0.3301,0.9336 0.9317,0.9336 v 0.2598 h -2.8906 v -0.2598 c 0.60351,0 0.93351,-0.2871 0.93351,-0.9336 v -5.5214 c -1.55851,0 -1.84761,0.1953 -2.07221,1.3808 h -0.2403 l 0.0547,-1.8476 z"
    />
    <path
      d="m 171.4782,7.149755 c -1.7715,0 -3.207,1.457 -3.207,3.7207 0,2.2637 1.4355,3.7187 3.207,3.7187 1.7715,0 3.207,-1.455 3.207,-3.7187 0,-2.2637 -1.4355,-3.7207 -3.207,-3.7207 z m 0,7.0195 c -1.3437,0 -2.1133,-1.29291 -2.1133,-3.2988 0,-2.0058999 0.7696,-3.2968999 2.1133,-3.2968999 1.3457,0 2.1152,1.291 2.1152,3.2968999 0,2.00589 -0.7695,3.2988 -2.1152,3.2988 z"
    />
    <path
      d="m 186.6735,13.585255 c -0.1308,-0.33591 -2.5371,-6.3983999 -2.5371,-6.3983999 h -0.2422 c 0,0 -2.1269,5.5585999 -2.3886,6.2108999 -0.26179,0.6543 -0.5782,0.8125 -0.8301,0.8125 v 0.2598 h 1.959 v -0.2598 c -0.2872,0 -0.6114,-0.2011 -0.6114,-0.5136 0,-0.0938 0.008,-0.2051 0.0332,-0.2715 0.0176,-0.0547 0.2207,-0.5996 0.4766,-1.2949 h 2.4883 c 0.2539,0.6894 0.4492,1.2207 0.457,1.25 0.0332,0.0937 0.0762,0.2226 0.0762,0.3164 0,0.2793 -0.22459,0.5136 -0.64459,0.5136 v 0.2598 h 2.51957 v -0.2598 c -0.30668,0 -0.62498,-0.289 -0.75588,-0.625 z m -3.9531,-1.95891 c 0.4863,-1.31839 1.0605,-2.87309 1.0605,-2.87309 0,0 0.5762,1.5645 1.0547,2.87309 z"
    />
    <path
      d="m 161.1247,12.604855 c -0.3184,0.7461 -0.7266,1.4004 -1.8652,1.4004 h -1.13869 c -0.416,0 -0.59571,-0.1446 -0.59571,-0.4864 v -2.5566 h 1.5469 c 0.5976,0 0.914,0.3379 1.00781,0.9726 H 160.322 V 9.4524551 h -0.2598 c -0.0371,0.6894999 -0.3926,1.0253999 -0.9336,1.0253999 h -1.6035 V 8.0735552 c 0,-0.2637 0.168,-0.3183 0.3906,-0.3183 h 1.3809 c 0.8574,0 1.15621,0.3535 1.3437,1.1562 h 0.2422 l -0.0566,-1.623 h -5.16609 v 0.2617 c 0.60159,0 0.877,0.2851 0.877,0.9316 v 4.7948998 c 0,0.6465 -0.27541,0.9336 -0.877,0.9336 v 0.2598 h 5.29889 l 0.4648,-1.8652 z"
    />
    <path
      d="m 166.5915,7.139955 0.2051,2.3691999 h -0.26179 c -0.35351,-1.1661 -0.95111,-1.8848098 -1.80851,-1.8848098 -0.6172,0 -0.9707,0.416 -0.9707,0.9707099 0,0.6328 0.4667,1.0059 1.0449,1.3984 0.5781,0.3907 0.9687,0.6543 1.1562,0.7832 0.5352,0.375 1.0449,1.043 1.0449,1.8106 0,1.168 -0.8769,2.0332 -2.0332,2.0332 -0.7089,0 -1.1562,-0.3555 -1.5117,-0.3555 -0.1953,0 -0.289,0.1973 -0.33589,0.3555 h -0.24221 l -0.29879,-2.3887 h 0.26169 c 0.4375,1.2227 1.0801,1.9395 1.9785,1.9395 0.6699,0 1.17381,-0.459 1.17381,-1.211 0,-0.6816 -0.35931,-1.0078 -0.78321,-1.3066 -0.4746,-0.3359 -1.0625,-0.7461 -1.4179,-0.9902 -0.5547,-0.377 -0.8965,-0.8887 -0.8965,-1.7149 0,-0.9883 0.6523,-1.8086 1.7734,-1.8086 0.4844,0 1.0254,0.3163901 1.32421,0.3163901 0.22269,0 0.31639,-0.1483901 0.336,-0.3163901 z"
    />
    <path
      d="m 152.32,7.288455 v 0.2617 c 0.5586,0 0.8945,0.4297 0.8945,1.082 v 3.7774 l -3.7304,-5.1211 h -1.6231 v 0.2617 c 0.3164,0 0.5781,0.1484 0.7071,0.3164 0.0156,0.0195 0.0898,0.1191 0.207,0.2754 v 4.8183 c 0,0.8203 -0.28129,1.25 -0.9336,1.25 v 0.2598 h 2.2949 v -0.2598 c -0.5605,0 -0.8945,-0.373 -0.8945,-1.0273 v -4.4102 c 1.3574,1.834 4.289,5.81059 4.289,5.81059 h 0.1524 v -5.78319 c 0,-0.9141 0.3711,-1.25 0.9297,-1.25 v -0.2617 z"
    />
    <path
      d="m 144.3532,7.288455 v 0.2617 c 0.56061,0 0.8945,0.4297 0.8945,1.082 v 3.7774 l -3.7304,-5.1211 h -1.6231 v 0.2617 c 0.3184,0 0.5781,0.1484 0.709,0.3164 0.0137,0.0195 0.0899,0.1191 0.207,0.2754 v 4.8183 c 0,0.8203 -0.2812,1.25 -0.9336,1.25 v 0.2598 h 2.295 v -0.2598 c -0.5606,0 -0.8965,-0.373 -0.8965,-1.0273 v -4.4102 c 1.3574,1.834 4.291,5.81059 4.291,5.81059 h 0.1484 v -5.78319 c 0,-0.9141 0.3731,-1.25 0.9336,-1.25 v -0.2617 z"
    />
    <path
      d="M 134.7263,5.2180551 V 4.9563452 h -2.2188 l -2.8926,7.7598098 -2.9092,-7.7598098 h -2.2587 v 0.2617099 c 0.9521,0 1.21381,0.5215 1.21381,1.4551 v 5.8378999 c 0,1.3496 -0.37891,1.6992 -1.23041,1.6992 v 0.2598 h 2.9287 v -0.2598 c -0.82129,0 -1.2139,-0.3535 -1.2139,-1.6992 V 6.4114552 l 3.0225,8.0780998 h 0.2793 l 3.08,-8.2264998 v 6.2479998 c 0,1.3496 -0.3066,1.6992 -1.15819,1.6992 v 0.2598 h 3.35749 v -0.2598 c -0.8204,0 -1.1368,-0.3535 -1.1368,-1.6992 V 6.5423452 c 0,-1.0820901 0.5782,-1.3242901 1.1368,-1.3242901 z"
    />
    <path
      d="m 137.4684,8.481755 c 0,-0.6465 0.3301,-0.9316 0.9336,-0.9316 v -0.2617 h -2.8925 v 0.2617 c 0.6035,0 0.9336,0.2851 0.9336,0.9316 v 4.7949 c 0,0.6465 -0.3301,0.9336 -0.9336,0.9336 v 0.2598 h 2.8925 v -0.2598 c -0.6035,0 -0.9336,-0.2871 -0.9336,-0.9336 z"
    />
    <path
      d="m 110.9889,7.159555 c -1.7714,0 -3.208,1.457 -3.208,3.7207 0,2.2636 1.4366,3.7187 3.208,3.7187 1.7706,0 3.2071,-1.4551 3.2071,-3.7187 0,-2.2637 -1.4365,-3.7207 -3.2071,-3.7207 z m 0,7.0175 c -1.3447,0 -2.1152,-1.291 -2.1152,-3.2968 0,-2.0079098 0.7705,-3.2989098 2.1152,-3.2989098 1.3428,0 2.1133,1.291 2.1133,3.2989098 0,2.0058 -0.7705,3.2968 -2.1133,3.2968 z"
    />
    <path
      d="m 120.4186,7.288455 h -5.2226 v 0.2617 c 0.6015,0 0.875,0.2851 0.875,0.9316 v 4.7949 c 0,0.6465 -0.2735,0.9336 -0.875,0.9336 v 0.2598 h 2.7793 v -0.2598 c -0.5781,0 -0.9151,-0.2812 -0.9151,-0.9336 v -2.3144 h 1.4922 c 0.5977,0 0.9151,0.3379 1.0088,0.9726 h 0.2412 V 9.4524551 h -0.2607 c -0.0371,0.6894999 -0.3916,1.0253999 -0.9326,1.0253999 h -1.5489 V 8.0735552 c 0,-0.2637 0.168,-0.3183 0.39161,-0.3183 h 1.43749 c 0.85751,0 1.1553,0.3535 1.3428,1.1562 h 0.2432 z"
    />
    <path
      d="m 96.436202,7.298155 0.0557,1.8457 h -0.2422 c -0.2236,-1.1836 -0.5127,-1.3789 -2.0713,-1.3789 v 5.5215 c 0,0.6465 0.3301,0.9336 0.9326,0.9336 v 0.2598 h -2.890599 v -0.2598 c 0.6035,0 0.932599,-0.2871 0.932599,-0.9336 v -5.5215 c -1.5566,0 -1.845699,0.1953 -2.070299,1.3789 h -0.2432 l 0.0557,-1.8457 z"
    />
    <path
      d="m 101.9772,7.557955 v -0.2598 h 2.2012 v 0.2598 c -0.3164,0 -0.8164,0.3476 -1.0264,0.6913901 -0.2334,0.3828099 -1.7724,2.9473099 -1.7724,2.9473099 v 2.0898 c 0,0.6973 0.2558,0.9336 1.0078,0.9336 v 0.2598 h -3.040998 v -0.2598 c 0.752898,0 1.007798,-0.2363 1.007798,-0.9336 v -1.9766 c 0,0 -1.697298,-2.7070001 -1.90239,-3.0429001 -0.206,-0.334 -0.616208,-0.709 -1.007808,-0.709 v -0.2598 H 100.28 v 0.2598 c -0.393598,0 -0.672898,0.1777 -0.672898,0.3828 0,0.1328 0.0674,0.291 0.1123,0.3731 0.0479,0.0839 1.437498,2.3691001 1.437498,2.3691001 0,0 1.38091,-2.3965001 1.417,-2.4609001 0.0381,-0.0665 0.0567,-0.1485 0.0567,-0.2325 0,-0.1972099 -0.1124,-0.4316 -0.6534,-0.4315999 z"
    />
    <path
      d="m 84.981103,7.139955 0.2051,2.3691999 h -0.2598 c -0.3554,-1.1661 -0.9521,-1.8848098 -1.8095,-1.8848098 -0.6162,0 -0.9707,0.416 -0.9707,0.9707099 0,0.6328 0.4658,1.0059 1.0449,1.3984 0.5791,0.3907 0.969707,0.6543 1.1562,0.7832 0.5342,0.375 1.044,1.043 1.044,1.8106 0,1.168 -0.877,2.0332 -2.0322,2.0332 -0.71,0 -1.156293,-0.3555 -1.5127,-0.3555 -0.1944,0 -0.2881,0.1973 -0.334,0.3555 h -0.2422 l -0.2998,-2.3887 h 0.2617 c 0.4375,1.2227 1.0811,1.9395 1.9776,1.9395 0.6699,0 1.1748,-0.459 1.1748,-1.211 0,-0.6816 -0.3594,-1.0078 -0.7842,-1.3066 -0.4746,-0.3359 -1.062493,-0.7461 -1.416,-0.9902 -0.5557,-0.377 -0.895493,-0.8887 -0.895493,-1.7149 0,-0.9883 0.651293,-1.8086 1.771393,-1.8086 0.4854,0 1.0264,0.3163901 1.3243,0.3163901 0.2236,0 0.3164,-0.1483901 0.3359,-0.3163901 z"
    />
    <path
      d="m 88.936202,8.491555 c 0,-0.6465 0.3301,-0.9336 0.932608,-0.9336 v -0.2598 h -2.890608 v 0.2598 c 0.6025,0 0.932608,0.2871 0.932608,0.9336 v 4.7949 c 0,0.6465 -0.330108,0.9336 -0.932608,0.9336 v 0.2598 h 2.890608 v -0.2598 c -0.602508,0 -0.932608,-0.2871 -0.932608,-0.9336 z"
    />
    <path
      d="m 72.482103,12.604855 c -0.3164,0.7461 -0.7275,1.4004 -1.8642,1.4004 h -1.1387 c -0.416,0 -0.5977,-0.1446 -0.5977,-0.4864 v -2.5566 h 1.5489 c 0.5976,0 0.915,0.3379 1.0078,0.9726 h 0.2422 V 9.4524551 h -0.2608 c -0.039,0.6894999 -0.3916,1.0253999 -0.9336,1.0253999 h -1.6045 V 8.0735552 c 0,-0.2637 0.169,-0.3183 0.3926,-0.3183 h 1.3799 c 0.8584,0 1.1572,0.3535 1.3437,1.1562 h 0.2422 l -0.0556,-1.623 h -5.167 v 0.2617 c 0.602507,0 0.8759,0.2851 0.8759,0.9316 v 4.7948998 c 0,0.6465 -0.273393,0.9336 -0.8759,0.9336 v 0.2598 h 5.2978 l 0.4658,-1.8652 z"
    />
    <path
      d="m 79.310203,13.891955 c -0.167,-0.1992 -1.7588,-2.3828 -2.1123,-2.8692 1.2852,-0.27341 1.7393,-0.9277 1.7393,-1.8691 0,-1.1191 -0.8399,-1.8652 -2.3691,-1.8652 h -2.8731 v 0.2617 c 0.6025,0 0.8779,0.2851 0.8779,0.9316 v 4.7949 c 0,0.6465 -0.2754,0.9336 -0.8779,0.9336 v 0.2598 h 2.7803 v -0.2598 c -0.603493,0 -0.8789,-0.2871 -0.8789,-0.9336 v -2.10931 c 0.1933,0 0.373,-0.0078 0.5459,-0.01569 l 2.3281,3.3184 h 1.567407 v -0.22271 c -0.260807,0 -0.541,-0.13079 -0.727607,-0.35539 z m -3.7138,-3.1524 V 8.3138551 c 0,-0.4961 0.1015,-0.6153 0.6543,-0.6153 1.2129,0 1.660107,0.5977 1.660107,1.4922 0,1.1015899 -0.833,1.5487999 -2.070307,1.5487999 z"
    />
    <path
      d="m 57.260403,8.481755 c 0,-0.6465 0.3282,-0.9316 0.9317,-0.9316 v -0.2617 h -2.8916 v 0.2617 c 0.6025,0 0.9336,0.2851 0.9336,0.9316 v 4.7949 c 0,0.6465 -0.3311,0.9336 -0.9336,0.9336 v 0.2598 h 2.8916 v -0.2598 c -0.6035,0 -0.9317,-0.2871 -0.9317,-0.9336 z"
    />
    <path
      d="m 61.997703,7.550155 v -0.2617 h -2.6308 v 0.2617 c 0.3174,0 0.6543,0.2051 0.876907,0.7461 0.224593,0.539 2.593793,6.28709 2.593793,6.28709 h 0.167 c 0,0 2.072207,-5.78319 2.2588,-6.28709 0.1865,-0.5039099 0.5029,-0.7461 0.8007,-0.7461 v -0.2617 h -2.0322 v 0.2617 c 0.4473,0 0.6904,0.2421901 0.6904,0.5586 0,0.0937 -0.0253,0.1953 -0.0576,0.2812 -0.039,0.1093901 -1.5097,4.23439 -1.5097,4.23439 0,0 -1.7373,-4.1679999 -1.7881,-4.29489 -0.04009,-0.0957 -0.0596,-0.2168 -0.0596,-0.3242 0,-0.2832 0.2393,-0.4551 0.6904,-0.4551 z"
    />
    <path
      d="m 37.894204,5.2180551 c 0.7842,0 1.1934,0.3907 1.1934,1.5098 v 4.4413999 c 0,2.2442 1.2324,3.4336 3.3779,3.4336 1.8457,0 3.2647,-1.1211 3.2647,-3.2851 V 6.4680551 c 0,-0.746 0.223606,-1.25 1.1191,-1.25 V 4.9563452 h -2.835 v 0.2617099 c 0.8018,0 1.1368,0.3555 1.1563,1.3242901 0.0185,0.9707099 0.07421,3.5078098 0.07421,5.0195098 0,1.5098 -1.082,2.4609 -2.555706,2.4609 -1.4169,0 -2.5371,-0.8398 -2.5371,-2.6113 V 6.4485551 c 0,-0.7324 0.2803,-1.2305 1.1202,-1.2305 V 4.9563452 h -3.378 z"
    />
    <path
      d="m 51.513403,7.288455 v 0.2617 c 0.5595,0 0.8945,0.4297 0.8945,1.082 v 3.7774 l -3.730499,-5.1211 h -1.623 v 0.2617 c 0.317406,0 0.5781,0.1484 0.7099,0.3164 0.0137,0.0195 0.0889,0.1191 0.2051,0.2754 v 4.8183 c 0,0.8203 -0.2803,1.25 -0.932594,1.25 v 0.2598 h 2.293894 v -0.2598 c -0.5595,0 -0.8955,-0.373 -0.8955,-1.0273 v -4.4102 c 1.3565,1.834 4.291099,5.81059 4.291099,5.81059 h 0.1484 v -5.78319 c 0,-0.9141 0.373,-1.25 0.9326,-1.25 v -0.2617 z"
    />
  </g>
  <g
    fill="var(--color-max)"
    transform="scale(0.99625182,1.0037623)"
  >
    <path
      d="m 12.984722,2.2723267 h 0.153311 v 0.8757138 h -0.153311 z m 0.334831,0 h 0.161897 l 0.399836,0.6451337 h 0.0025 V 2.2723267 h 0.145952 V 3.1480405 H 13.867794 L 13.469185,2.5041333 h -0.0037 v 0.6439072 h -0.145953 z m 0.992231,0.5838092 q 0,0.050286 0.01717,0.085854 0.01717,0.035568 0.04783,0.058871 0.03066,0.022077 0.06991,0.033115 0.04047,0.00981 0.08708,0.00981 0.05029,0 0.08585,-0.011038 0.03557,-0.012265 0.05764,-0.030662 0.02208,-0.018397 0.03189,-0.041701 0.0098,-0.02453 0.0098,-0.04906 0,-0.050286 -0.0233,-0.073589 -0.02208,-0.02453 -0.04906,-0.034342 -0.04661,-0.017171 -0.109158,-0.031889 -0.06133,-0.015944 -0.152085,-0.040474 -0.05642,-0.014718 -0.09444,-0.038021 -0.03679,-0.02453 -0.05887,-0.053966 -0.02208,-0.029436 -0.03189,-0.062551 -0.0086,-0.033115 -0.0086,-0.067457 0,-0.06623 0.02698,-0.1140635 0.02821,-0.04906 0.07359,-0.080948 0.04538,-0.031889 0.103025,-0.046607 0.05765,-0.015944 0.116517,-0.015944 0.06868,0 0.128781,0.018397 0.06133,0.017171 0.106705,0.052739 0.04661,0.035568 0.07359,0.088307 0.02698,0.051513 0.02698,0.1201961 h -0.153311 q -0.0061,-0.084628 -0.05765,-0.1189696 -0.05151,-0.035568 -0.131235,-0.035568 -0.02698,0 -0.05519,0.00613 -0.02821,0.00491 -0.05151,0.018397 -0.0233,0.012265 -0.03925,0.034342 -0.01472,0.022077 -0.01472,0.055192 0,0.046607 0.02821,0.073589 0.02944,0.025756 0.07604,0.039248 0.0049,0.00123 0.03802,0.011038 0.03434,0.00859 0.07604,0.019624 0.0417,0.011038 0.08095,0.022077 0.04047,0.00981 0.05764,0.014718 0.04293,0.013491 0.07482,0.036795 0.03189,0.023303 0.05274,0.053966 0.02208,0.029436 0.03189,0.063778 0.01104,0.034342 0.01104,0.068683 0,0.073589 -0.03066,0.1263285 -0.02944,0.051513 -0.0785,0.084628 -0.04906,0.033115 -0.11161,0.047833 -0.06255,0.015944 -0.127555,0.015944 -0.07482,0 -0.141047,-0.018397 -0.06623,-0.018397 -0.11529,-0.056418 -0.04906,-0.038021 -0.0785,-0.096893 -0.02944,-0.060098 -0.03066,-0.1410464 z m 0.610793,-0.5838092 h 0.708911 V 2.4047876 H 15.353075 V 3.1480405 H 15.199764 V 2.4047876 h -0.277187 z m 0.81071,0 h 0.153312 v 0.8757138 h -0.153312 z m 0.257563,0 h 0.708911 V 2.4047876 H 16.421348 V 3.1480405 H 16.268037 V 2.4047876 H 15.99085 Z m 0.800898,0 h 0.153312 v 0.5102198 q 0,0.044154 0.0037,0.089534 0.0049,0.04538 0.02453,0.082175 0.02085,0.035568 0.06132,0.058871 0.0417,0.023303 0.116517,0.023303 0.07482,0 0.11529,-0.023303 0.0417,-0.023303 0.06133,-0.058871 0.02085,-0.036795 0.02453,-0.082175 0.0049,-0.04538 0.0049,-0.089534 V 2.2723267 h 0.153312 v 0.5605059 q 0,0.084628 -0.02576,0.1471788 -0.02576,0.062551 -0.07359,0.1054781 -0.04661,0.041701 -0.112837,0.062551 -0.06623,0.02085 -0.147179,0.02085 -0.08095,0 -0.147179,-0.02085 -0.06623,-0.02085 -0.114063,-0.062551 -0.04661,-0.042927 -0.07236,-0.1054781 -0.02576,-0.062551 -0.02576,-0.1471788 z m 0.811937,0 h 0.708911 V 2.4047876 H 18.034183 V 3.1480405 H 17.880872 V 2.4047876 h -0.277187 z m 0.81071,0 h 0.630416 v 0.1324609 h -0.477104 v 0.2293536 h 0.441536 v 0.125102 h -0.441536 v 0.2563364 h 0.48569 V 3.1480405 H 18.414395 Z M 19.9009,2.3765783 q -0.06991,0 -0.121422,0.028209 -0.05029,0.028209 -0.08217,0.076042 -0.03189,0.046607 -0.04783,0.1067046 -0.01472,0.060098 -0.01472,0.122649 0,0.062551 0.01472,0.122649 0.01594,0.060098 0.04783,0.1079311 0.03189,0.046607 0.08217,0.074816 0.05151,0.028209 0.121422,0.028209 0.06991,0 0.120196,-0.028209 0.05151,-0.028209 0.0834,-0.074816 0.03189,-0.047833 0.04661,-0.1079311 0.01594,-0.060098 0.01594,-0.122649 0,-0.062551 -0.01594,-0.122649 -0.01472,-0.060098 -0.04661,-0.1067046 -0.03189,-0.047833 -0.0834,-0.076042 -0.05029,-0.028209 -0.120196,-0.028209 z m 0,-0.125102 q 0.09812,0 0.175388,0.036795 0.07849,0.036795 0.132461,0.099346 0.05397,0.062551 0.08217,0.1459523 0.02944,0.083401 0.02944,0.1766146 0,0.09444 -0.02944,0.177841 -0.02821,0.083401 -0.08217,0.1459524 -0.05397,0.062551 -0.132461,0.099346 -0.07727,0.035568 -0.175388,0.035568 -0.09812,0 -0.176615,-0.035568 -0.07727,-0.036795 -0.131234,-0.099346 -0.05397,-0.062551 -0.0834,-0.1459524 -0.02821,-0.083401 -0.02821,-0.177841 0,-0.093213 0.02821,-0.1766146 0.02943,-0.083401 0.0834,-0.1459523 0.05397,-0.062551 0.131234,-0.099346 0.0785,-0.036795 0.176615,-0.036795 z m 0.55928,0.02085 h 0.604659 v 0.1324609 h -0.451348 v 0.2293536 h 0.396156 v 0.125102 H 20.613491 V 3.1480405 H 20.46018 Z m 1.068273,0 h 0.630416 v 0.1324609 h -0.477104 v 0.2293536 h 0.441536 v 0.125102 h -0.441536 v 0.2563364 h 0.48569 v 0.1324609 h -0.639002 z m 0.772688,0 h 0.153311 v 0.7432529 h 0.445216 v 0.1324609 h -0.598527 z m 0.704005,0 h 0.630415 v 0.1324609 h -0.477104 v 0.2293536 h 0.441536 v 0.125102 h -0.441536 v 0.2563364 h 0.48569 v 0.1324609 h -0.639001 z m 1.363856,0.2784132 q -0.0098,-0.038021 -0.02698,-0.06991 -0.01717,-0.031889 -0.04415,-0.055192 -0.02698,-0.023303 -0.06378,-0.035568 -0.03557,-0.013491 -0.0834,-0.013491 -0.06991,0 -0.121422,0.028209 -0.05029,0.028209 -0.08218,0.076042 -0.03189,0.046607 -0.04783,0.1067046 -0.01472,0.060098 -0.01472,0.122649 0,0.062551 0.01472,0.122649 0.01594,0.060098 0.04783,0.1079311 0.03189,0.046607 0.08218,0.074816 0.05151,0.028209 0.121422,0.028209 0.05151,0 0.09076,-0.017171 0.03925,-0.018397 0.06746,-0.04906 0.02821,-0.031889 0.04415,-0.073589 0.01594,-0.041701 0.02085,-0.089534 h 0.149631 q -0.0049,0.078495 -0.03434,0.1434994 -0.02821,0.065004 -0.07727,0.1128371 -0.04906,0.046607 -0.11529,0.072363 -0.06623,0.025756 -0.145953,0.025756 -0.09812,0 -0.176614,-0.035568 -0.07727,-0.036795 -0.131235,-0.099346 -0.05396,-0.062551 -0.0834,-0.1459524 -0.02821,-0.083401 -0.02821,-0.177841 0,-0.093213 0.02821,-0.1766146 0.02944,-0.083401 0.0834,-0.1459523 0.05397,-0.062551 0.131235,-0.099346 0.0785,-0.036795 0.176614,-0.036795 0.07359,0 0.138594,0.02085 0.065,0.019624 0.114063,0.058872 0.05029,0.038021 0.08095,0.093213 0.03066,0.055192 0.03802,0.1263285 z m 0.210956,-0.2784132 h 0.708911 V 2.4047876 H 25.010456 V 3.1480405 H 24.857145 V 2.4047876 h -0.277187 z m 0.81071,0 h 0.418233 q 0.144726,0 0.217089,0.062551 0.07236,0.062551 0.07236,0.1741616 0,0.062551 -0.0184,0.1042517 -0.0184,0.040474 -0.04293,0.06623 -0.02453,0.02453 -0.04906,0.035568 -0.0233,0.011038 -0.03434,0.014718 v 0.00245 q 0.01962,0.00245 0.0417,0.012265 0.0233,0.00981 0.04293,0.031889 0.01962,0.02085 0.03189,0.055192 0.01349,0.034342 0.01349,0.085854 0,0.077269 0.01104,0.1410464 0.01226,0.062551 0.03679,0.089534 h -0.164349 q -0.01717,-0.028209 -0.02085,-0.062551 -0.0025,-0.034342 -0.0025,-0.06623 0,-0.060098 -0.0074,-0.1030252 -0.0074,-0.044154 -0.02698,-0.072363 -0.01962,-0.029436 -0.05397,-0.042927 -0.03311,-0.013491 -0.08585,-0.013491 H 25.54398 v 0.360588 h -0.153312 z m 0.153312,0.3986092 h 0.25143 q 0.07359,0 0.111611,-0.034342 0.03802,-0.035568 0.03802,-0.1054781 0,-0.041701 -0.01226,-0.067457 -0.01227,-0.026983 -0.03434,-0.041701 -0.02085,-0.014718 -0.04906,-0.019624 -0.02698,-0.00491 -0.05642,-0.00491 H 25.54398 Z m 0.710137,-0.3986092 h 0.153312 v 0.8757138 h -0.153312 z m 0.932133,0.2784132 q -0.0098,-0.038021 -0.02698,-0.06991 -0.01717,-0.031889 -0.04415,-0.055192 -0.02698,-0.023303 -0.06378,-0.035568 -0.03557,-0.013491 -0.0834,-0.013491 -0.06991,0 -0.121423,0.028209 -0.05029,0.028209 -0.08217,0.076042 -0.03189,0.046607 -0.04783,0.1067046 -0.01472,0.060098 -0.01472,0.122649 0,0.062551 0.01472,0.122649 0.01594,0.060098 0.04783,0.1079311 0.03189,0.046607 0.08217,0.074816 0.05151,0.028209 0.121423,0.028209 0.05151,0 0.09076,-0.017171 0.03925,-0.018397 0.06746,-0.04906 0.02821,-0.031889 0.04415,-0.073589 0.01594,-0.041701 0.02085,-0.089534 h 0.149632 q -0.0049,0.078495 -0.03434,0.1434994 -0.02821,0.065004 -0.07727,0.1128371 -0.04906,0.046607 -0.11529,0.072363 -0.06623,0.025756 -0.145952,0.025756 -0.09812,0 -0.176615,-0.035568 -0.07727,-0.036795 -0.131234,-0.099346 -0.05397,-0.062551 -0.0834,-0.1459524 -0.02821,-0.083401 -0.02821,-0.177841 0,-0.093213 0.02821,-0.1766146 0.02944,-0.083401 0.0834,-0.1459523 0.05397,-0.062551 0.131234,-0.099346 0.0785,-0.036795 0.176615,-0.036795 0.07359,0 0.138593,0.02085 0.065,0.019624 0.114064,0.058872 0.05029,0.038021 0.08095,0.093213 0.03066,0.055192 0.03802,0.1263285 z m 0.528617,-0.2784132 h 0.163123 l 0.337285,0.8757138 h -0.16435 l -0.08217,-0.2318066 h -0.34955 l -0.08217,0.2318066 h -0.158217 z m -0.05397,0.5273907 h 0.267374 L 27.797042,2.4231849 h -0.0037 z m 0.637774,-0.5273907 h 0.153311 v 0.7432529 h 0.445216 v 0.1324609 h -0.598527 z"
    />
    <path
      d="m 12.930756,4.5830339 q -0.04906,0.060098 -0.109158,0.088307 -0.05887,0.026983 -0.13614,0.026983 -0.0601,0 -0.111611,-0.017171 -0.05029,-0.018397 -0.08708,-0.051513 -0.03679,-0.033115 -0.05764,-0.080948 -0.01962,-0.04906 -0.01962,-0.1103841 0,-0.046607 0.01717,-0.084628 0.01717,-0.038021 0.04538,-0.068683 0.02821,-0.031889 0.06378,-0.056419 0.03679,-0.02453 0.07482,-0.044154 -0.01717,-0.022077 -0.03312,-0.042927 -0.01595,-0.022077 -0.02821,-0.04538 -0.01226,-0.023303 -0.01962,-0.04906 -0.0074,-0.025756 -0.0074,-0.053965 0,-0.047833 0.01594,-0.085854 0.01717,-0.038021 0.04661,-0.065004 0.02944,-0.028209 0.06868,-0.042927 0.03925,-0.014718 0.0834,-0.014718 0.0417,0 0.08095,0.013491 0.04047,0.012265 0.06991,0.039248 0.03066,0.025756 0.04906,0.065004 0.0184,0.039248 0.0184,0.091987 0,0.039248 -0.01349,0.072363 -0.01226,0.033115 -0.03434,0.061325 -0.02085,0.026983 -0.05029,0.04906 -0.02821,0.022077 -0.0601,0.039248 l 0.136141,0.1643497 q 0.0074,-0.02085 0.01472,-0.047833 0.0074,-0.026983 0.01226,-0.06991 h 0.122649 q -0.0061,0.057645 -0.0233,0.112837 -0.01594,0.055192 -0.04538,0.1017987 l 0.168029,0.2035974 H 13.010478 Z M 12.684231,4.2764114 q -0.01962,0.012265 -0.04293,0.02453 -0.0233,0.012265 -0.04415,0.030662 -0.01962,0.018397 -0.03434,0.044154 -0.01349,0.025756 -0.01349,0.065004 0,0.071136 0.03925,0.1091576 0.04047,0.038021 0.101799,0.038021 0.03802,0 0.065,-0.00981 0.02698,-0.011038 0.04538,-0.025756 0.01962,-0.014718 0.03189,-0.031889 0.01349,-0.017171 0.0233,-0.030662 z m 0.05642,-0.3875709 q -0.03925,0 -0.06623,0.026983 -0.02698,0.025756 -0.02698,0.06991 0,0.022077 0.0074,0.041701 0.0086,0.018397 0.01962,0.036795 0.01226,0.017171 0.02576,0.034342 0.01472,0.017171 0.02698,0.033115 0.01962,-0.013491 0.03802,-0.026983 0.0184,-0.014718 0.03311,-0.030662 0.01472,-0.017171 0.0233,-0.038021 0.0086,-0.02085 0.0086,-0.046607 0,-0.042927 -0.02453,-0.071136 -0.02453,-0.029436 -0.065,-0.029436 z m 0.858544,-0.083401 h 0.630416 V 3.9379004 H 13.752506 V 4.167254 h 0.441536 v 0.125102 h -0.441536 v 0.2563364 h 0.48569 v 0.132461 h -0.639001 z m 0.772687,0 h 0.153312 v 0.7432529 h 0.445215 v 0.132461 h -0.598527 z m 0.704005,0 h 0.630416 V 3.9379004 H 15.229198 V 4.167254 h 0.441537 v 0.125102 h -0.441537 v 0.2563364 h 0.48569 v 0.132461 h -0.639001 z m 1.363856,0.2784132 q -0.0098,-0.038021 -0.02698,-0.06991 -0.01717,-0.031889 -0.04415,-0.055192 -0.02698,-0.023303 -0.06378,-0.035568 -0.03557,-0.013491 -0.0834,-0.013491 -0.06991,0 -0.121422,0.028209 -0.05029,0.028209 -0.08217,0.076042 -0.03189,0.046607 -0.04783,0.1067046 -0.01472,0.060098 -0.01472,0.122649 0,0.062551 0.01472,0.122649 0.01594,0.060098 0.04783,0.1079311 0.03189,0.046607 0.08217,0.074816 0.05151,0.028209 0.121422,0.028209 0.05151,0 0.09076,-0.017171 0.03925,-0.018397 0.06746,-0.04906 0.02821,-0.031889 0.04415,-0.073589 0.01594,-0.041701 0.02085,-0.089534 h 0.149631 q -0.0049,0.078495 -0.03434,0.1434993 -0.02821,0.065004 -0.07727,0.1128371 -0.04906,0.046607 -0.11529,0.072363 -0.06623,0.025756 -0.145953,0.025756 -0.09812,0 -0.176614,-0.035568 -0.07727,-0.036795 -0.131235,-0.099346 -0.05396,-0.062551 -0.0834,-0.1459523 -0.02821,-0.083401 -0.02821,-0.1778411 0,-0.093213 0.02821,-0.1766145 0.02944,-0.083401 0.0834,-0.1459524 0.05397,-0.062551 0.131235,-0.099346 0.0785,-0.036795 0.176614,-0.036795 0.07359,0 0.138594,0.02085 0.065,0.019624 0.114063,0.058871 0.05029,0.038021 0.08095,0.093213 0.03066,0.055192 0.03802,0.1263285 z m 0.210956,-0.2784132 h 0.708912 v 0.1324609 h -0.278414 v 0.743253 h -0.153311 v -0.743253 h -0.277187 z m 0.81071,0 h 0.418234 q 0.144725,0 0.217088,0.062551 0.07236,0.062551 0.07236,0.1741616 0,0.062551 -0.0184,0.1042516 -0.0184,0.040474 -0.04293,0.066231 -0.02453,0.02453 -0.04906,0.035568 -0.0233,0.011038 -0.03434,0.014718 v 0.00245 q 0.01962,0.00245 0.0417,0.012265 0.0233,0.00981 0.04293,0.031889 0.01962,0.02085 0.03189,0.055192 0.01349,0.034342 0.01349,0.085854 0,0.077269 0.01104,0.1410464 0.01227,0.062551 0.03679,0.089534 h -0.164349 q -0.01717,-0.028209 -0.02085,-0.062551 -0.0025,-0.034342 -0.0025,-0.066231 0,-0.060098 -0.0074,-0.1030252 -0.0074,-0.044154 -0.02698,-0.072363 -0.01962,-0.029436 -0.05397,-0.042927 -0.03312,-0.013491 -0.08585,-0.013491 H 17.61472 V 4.681151 h -0.153312 z m 0.153312,0.3986092 h 0.25143 q 0.07359,0 0.111611,-0.034342 0.03802,-0.035568 0.03802,-0.1054781 0,-0.041701 -0.01227,-0.067457 -0.01226,-0.026983 -0.03434,-0.041701 -0.02085,-0.014718 -0.04906,-0.019624 -0.02698,-0.00491 -0.05642,-0.00491 H 17.61472 Z m 1.082991,-0.2943576 q -0.06991,0 -0.121423,0.028209 -0.05029,0.028209 -0.08217,0.076042 -0.03189,0.046607 -0.04783,0.1067046 -0.01472,0.060098 -0.01472,0.122649 0,0.062551 0.01472,0.122649 0.01594,0.060098 0.04783,0.1079311 0.03189,0.046607 0.08217,0.074816 0.05151,0.028209 0.121423,0.028209 0.06991,0 0.120196,-0.028209 0.05151,-0.028209 0.0834,-0.074816 0.03189,-0.047833 0.04661,-0.1079311 0.01594,-0.060098 0.01594,-0.122649 0,-0.062551 -0.01594,-0.122649 -0.01472,-0.060098 -0.04661,-0.1067046 -0.03189,-0.047833 -0.0834,-0.076042 -0.05029,-0.028209 -0.120196,-0.028209 z m 0,-0.1251019 q 0.09812,0 0.175388,0.036795 0.0785,0.036795 0.132461,0.099346 0.05397,0.062551 0.08217,0.1459524 0.02944,0.083401 0.02944,0.1766145 0,0.09444 -0.02944,0.1778411 -0.02821,0.083401 -0.08217,0.1459523 -0.05397,0.062551 -0.132461,0.099346 -0.07727,0.035568 -0.175388,0.035568 -0.09812,0 -0.176615,-0.035568 -0.07727,-0.036795 -0.131234,-0.099346 -0.05397,-0.062551 -0.0834,-0.1459523 -0.02821,-0.083401 -0.02821,-0.1778411 0,-0.093213 0.02821,-0.1766145 0.02944,-0.083401 0.0834,-0.1459524 0.05397,-0.062551 0.131234,-0.099346 0.0785,-0.036795 0.176615,-0.036795 z m 0.553147,0.02085 h 0.161897 l 0.399836,0.6451337 h 0.0025 V 3.8054392 h 0.145952 V 4.6811531 H 19.799099 L 19.40049,4.0372458 h -0.0037 v 0.6439073 h -0.145953 z m 0.891659,0 h 0.153311 v 0.8757139 h -0.153311 z m 0.932132,0.2784132 q -0.0098,-0.038021 -0.02698,-0.06991 -0.01717,-0.031889 -0.04415,-0.055192 -0.02698,-0.023303 -0.06378,-0.035568 -0.03557,-0.013491 -0.0834,-0.013491 -0.06991,0 -0.121423,0.028209 -0.05029,0.028209 -0.08217,0.076042 -0.03189,0.046607 -0.04783,0.1067046 -0.01472,0.060098 -0.01472,0.122649 0,0.062551 0.01472,0.122649 0.01594,0.060098 0.04783,0.1079311 0.03189,0.046607 0.08217,0.074816 0.05151,0.028209 0.121423,0.028209 0.05151,0 0.09076,-0.017171 0.03925,-0.018397 0.06746,-0.04906 0.02821,-0.031889 0.04415,-0.073589 0.01594,-0.041701 0.02085,-0.089534 h 0.149632 q -0.0049,0.078495 -0.03434,0.1434993 -0.02821,0.065004 -0.07727,0.1128371 -0.04906,0.046607 -0.11529,0.072363 -0.06623,0.025756 -0.145952,0.025756 -0.09812,0 -0.176615,-0.035568 -0.07727,-0.036795 -0.131234,-0.099346 -0.05397,-0.062551 -0.0834,-0.1459523 -0.02821,-0.083401 -0.02821,-0.1778411 0,-0.093213 0.02821,-0.1766145 0.02944,-0.083401 0.0834,-0.1459524 0.05397,-0.062551 0.131234,-0.099346 0.0785,-0.036795 0.176615,-0.036795 0.07359,0 0.138593,0.02085 0.065,0.019624 0.114064,0.058871 0.05029,0.038021 0.08095,0.093213 0.03066,0.055192 0.03802,0.1263285 z m 0.39493,0.305396 q 0,0.050286 0.01717,0.085854 0.01717,0.035568 0.04783,0.058872 0.03066,0.022077 0.06991,0.033115 0.04047,0.00981 0.08708,0.00981 0.05029,0 0.08585,-0.011038 0.03557,-0.012265 0.05765,-0.030662 0.02208,-0.018397 0.03189,-0.041701 0.0098,-0.02453 0.0098,-0.04906 0,-0.050286 -0.0233,-0.073589 -0.02208,-0.02453 -0.04906,-0.034342 -0.04661,-0.017171 -0.109157,-0.031889 -0.06133,-0.015944 -0.152085,-0.040474 -0.05642,-0.014718 -0.09444,-0.038021 -0.03679,-0.02453 -0.05887,-0.053966 -0.02208,-0.029436 -0.03189,-0.062551 -0.0086,-0.033115 -0.0086,-0.067457 0,-0.066231 0.02698,-0.1140636 0.02821,-0.04906 0.07359,-0.080948 0.04538,-0.031889 0.103025,-0.046607 0.05764,-0.015944 0.116517,-0.015944 0.06868,0 0.128781,0.018397 0.06132,0.017171 0.106705,0.052739 0.04661,0.035568 0.07359,0.088307 0.02698,0.051513 0.02698,0.120196 h -0.153311 q -0.0061,-0.084628 -0.05764,-0.1189696 -0.05151,-0.035568 -0.131235,-0.035568 -0.02698,0 -0.05519,0.00613 -0.02821,0.00491 -0.05151,0.018397 -0.0233,0.012265 -0.03925,0.034342 -0.01472,0.022077 -0.01472,0.055192 0,0.046607 0.02821,0.073589 0.02944,0.025756 0.07604,0.039248 0.0049,0.00123 0.03802,0.011038 0.03434,0.00859 0.07604,0.019624 0.0417,0.011038 0.08095,0.022077 0.04047,0.00981 0.05764,0.014718 0.04293,0.013491 0.07482,0.036795 0.03189,0.023303 0.05274,0.053966 0.02208,0.029436 0.03189,0.063778 0.01104,0.034342 0.01104,0.068683 0,0.073589 -0.03066,0.1263285 -0.02943,0.051513 -0.0785,0.084628 -0.04906,0.033115 -0.111611,0.047833 -0.06255,0.015944 -0.127555,0.015944 -0.07482,0 -0.141046,-0.018397 -0.06623,-0.018397 -0.11529,-0.056419 -0.04906,-0.038021 -0.0785,-0.096893 -0.02944,-0.060098 -0.03066,-0.1410464 z m 1.035158,-0.5838092 h 0.630416 v 0.1324609 h -0.477105 v 0.2293536 h 0.441537 v 0.125102 h -0.441537 v 0.2563364 h 0.485691 v 0.132461 h -0.639002 z m 0.766556,0 h 0.161896 l 0.399836,0.6451337 h 0.0025 V 3.8054392 h 0.145952 v 0.8757139 h -0.161896 l -0.39861,-0.6439073 h -0.0037 V 4.6811531 H 23.27132 Z m 1.655761,0.8757139 h -0.09812 l -0.0233,-0.1030252 q -0.06133,0.06991 -0.122649,0.096893 -0.06133,0.026983 -0.141047,0.026983 -0.09812,0 -0.176614,-0.035568 -0.07727,-0.036795 -0.131235,-0.099346 -0.05396,-0.062551 -0.0834,-0.1459523 -0.02821,-0.083401 -0.02821,-0.1778411 0,-0.093213 0.02821,-0.1766145 0.02944,-0.083401 0.0834,-0.1459524 0.05397,-0.062551 0.131235,-0.099346 0.0785,-0.036795 0.176614,-0.036795 0.07114,0 0.134914,0.019624 0.065,0.018397 0.11529,0.056418 0.05029,0.036795 0.0834,0.093213 0.03312,0.056418 0.0417,0.1300079 H 24.76761 q -0.0061,-0.042927 -0.02698,-0.074816 -0.01962,-0.033115 -0.05029,-0.055192 -0.03066,-0.022077 -0.06868,-0.033115 -0.03802,-0.011038 -0.07972,-0.011038 -0.06991,0 -0.121422,0.028209 -0.05029,0.028209 -0.08217,0.076042 -0.03189,0.046607 -0.04783,0.1067046 -0.01472,0.060098 -0.01472,0.122649 0,0.062551 0.01472,0.122649 0.01594,0.060098 0.04783,0.1079311 0.03189,0.046607 0.08217,0.074816 0.05151,0.028209 0.121422,0.028209 0.05887,0.00123 0.104252,-0.014718 0.04538,-0.017171 0.07604,-0.047833 0.03189,-0.031889 0.04783,-0.077269 0.01594,-0.04538 0.01717,-0.1005721 H 24.554201 V 4.2199928 h 0.372853 z m 0.166804,-0.8757139 h 0.153311 v 0.8757139 h -0.153311 z m 0.334832,0 h 0.161897 l 0.399835,0.6451337 h 0.0025 V 3.8054392 h 0.145953 V 4.6811531 H 25.976931 L 25.578322,4.0372458 h -0.0037 V 4.6811531 H 25.42869 Z m 0.891658,0 h 0.630416 V 3.9379001 H 26.47366 v 0.2293536 h 0.441537 v 0.125102 H 26.47366 v 0.2563364 h 0.48569 v 0.132461 h -0.639001 z m 0.772687,0 h 0.630416 v 0.1324609 h -0.477105 v 0.2293536 h 0.441537 v 0.125102 h -0.441537 v 0.2563364 h 0.48569 v 0.132461 h -0.639001 z m 0.772688,0 h 0.418233 q 0.144726,0 0.217089,0.062551 0.07236,0.062551 0.07236,0.1741616 0,0.062551 -0.0184,0.1042516 -0.0184,0.040474 -0.04293,0.066231 -0.02453,0.02453 -0.04906,0.035568 -0.0233,0.011038 -0.03434,0.014718 v 0.00245 q 0.01962,0.00245 0.0417,0.012265 0.0233,0.00981 0.04293,0.031889 0.01962,0.02085 0.03189,0.055192 0.01349,0.034342 0.01349,0.085854 0,0.077269 0.01104,0.1410464 0.01226,0.062551 0.03679,0.089534 h -0.16435 q -0.01717,-0.028209 -0.02085,-0.062551 -0.0025,-0.034342 -0.0025,-0.066231 0,-0.060098 -0.0074,-0.1030252 -0.0074,-0.044154 -0.02698,-0.072363 -0.01962,-0.029436 -0.05396,-0.042927 -0.03312,-0.013491 -0.08586,-0.013491 h -0.225674 v 0.3605881 h -0.153311 z m 0.153311,0.3986092 h 0.251431 q 0.07359,0 0.11161,-0.034342 0.03802,-0.035568 0.03802,-0.1054781 0,-0.041701 -0.01226,-0.067457 -0.01226,-0.026983 -0.03434,-0.041701 -0.02085,-0.014718 -0.04906,-0.019624 -0.02698,-0.00491 -0.05642,-0.00491 h -0.248978 z m 0.81071,0.1852 q 0,0.050286 0.01717,0.085854 0.01717,0.035568 0.04783,0.058872 0.03066,0.022077 0.06991,0.033115 0.04047,0.00981 0.08708,0.00981 0.05029,0 0.08585,-0.011038 0.03557,-0.012265 0.05765,-0.030662 0.02208,-0.018397 0.03189,-0.041701 0.0098,-0.02453 0.0098,-0.04906 0,-0.050286 -0.0233,-0.073589 -0.02208,-0.02453 -0.04906,-0.034342 -0.04661,-0.017171 -0.109158,-0.031889 -0.06132,-0.015944 -0.152084,-0.040474 -0.05642,-0.014718 -0.09444,-0.038021 -0.03679,-0.02453 -0.05887,-0.053966 -0.02208,-0.029436 -0.03189,-0.062551 -0.0086,-0.033115 -0.0086,-0.067457 0,-0.066231 0.02698,-0.1140636 0.02821,-0.04906 0.07359,-0.080948 0.04538,-0.031889 0.103026,-0.046607 0.05764,-0.015944 0.116516,-0.015944 0.06868,0 0.128782,0.018397 0.06132,0.017171 0.106704,0.052739 0.04661,0.035568 0.07359,0.088307 0.02698,0.051513 0.02698,0.120196 H 29.21238 q -0.0061,-0.084628 -0.05765,-0.1189696 -0.05151,-0.035568 -0.131234,-0.035568 -0.02698,0 -0.05519,0.00613 -0.02821,0.00491 -0.05151,0.018397 -0.0233,0.012265 -0.03925,0.034342 -0.01472,0.022077 -0.01472,0.055192 0,0.046607 0.02821,0.073589 0.02944,0.025756 0.07604,0.039248 0.0049,0.00123 0.03802,0.011038 0.03434,0.00859 0.07604,0.019624 0.0417,0.011038 0.08095,0.022077 0.04047,0.00981 0.05764,0.014718 0.04293,0.013491 0.07482,0.036795 0.03189,0.023303 0.05274,0.053966 0.02208,0.029436 0.03189,0.063778 0.01104,0.034342 0.01104,0.068683 0,0.073589 -0.03066,0.1263285 -0.02944,0.051513 -0.0785,0.084628 -0.04906,0.033115 -0.111611,0.047833 -0.06255,0.015944 -0.127555,0.015944 -0.07482,0 -0.141046,-0.018397 -0.06623,-0.018397 -0.11529,-0.056419 -0.04906,-0.038021 -0.0785,-0.096893 -0.02944,-0.060098 -0.03066,-0.1410464 z"
    />
  </g>
  <path
    stroke="var(--color-max)"
    stroke-width="0.114325"
    d="M 12.310602,5.5930032 H 29.303775"
  />
</svg>
